<?xml version="1.0" encoding="UTF-8" standalone="no"?>
<!DOCTYPE svg PUBLIC "-//W3C//DTD SVG 1.1//EN" "http://www.w3.org/Graphics/SVG/1.1/DTD/svg11.dtd">
<svg width="100%" height="100%" viewBox="0 0 329 407" version="1.1" xmlns="http://www.w3.org/2000/svg" xmlns:xlink="http://www.w3.org/1999/xlink" xml:space="preserve" xmlns:serif="http://www.serif.com/" style="fill-rule:evenodd;clip-rule:evenodd;stroke-linejoin:round;stroke-miterlimit:2;">
    <g id="Layer2">
        <path d="M48.673,341.95C48.673,341.95 37.334,346.631 37.428,352.947C37.56,361.677 82.172,368.609 135.966,368.387C191.258,368.159 235.834,359.917 235.615,352.947C235.394,345.94 223.192,343.157 223.192,343.157C223.192,343.157 251.07,343.1 251.049,356.278C251.023,372.37 191.188,386.594 135.966,387.144C82.184,387.679 16.562,373.386 17,357.075C17.366,343.436 48.673,341.95 48.673,341.95Z" style="fill:rgb(7,59,76);"/>
        <path d="M101.374,185.716L132.604,186.204L85.872,256.418L101.374,275.672C101.374,275.672 100.804,242.835 111.998,225.594C123.193,208.353 141.474,193.89 159.741,188.723C178.009,183.557 196.043,186.395 211.974,184.244C227.905,182.094 244.207,173.5 245.167,173.139C246.128,172.777 245.167,203.5 245.167,203.5C245.167,203.5 234.834,208.042 217.261,211.453C194.326,215.906 159.78,206.938 139.588,239.16C124.731,262.87 134.944,302.16 153.727,313.272C180.431,329.069 208.005,322.281 221.975,309.521C234.768,297.836 245.167,279.058 245.167,279.058C245.167,279.058 241.166,314.783 211.705,337.994C188.815,356.028 165.587,355.917 135.82,347.312C114.542,341.161 51.807,261.943 51.807,261.943L101.374,185.716Z" style="fill:rgb(7,59,76);"/>
        <g transform="matrix(1,0,0,1,-1,-1)">
            <path d="M245.594,194.207C245.594,194.207 275.265,177.155 301.004,192.606C322.677,205.616 317.743,236.465 309.456,255.642C301.65,273.704 283.306,288.725 268.484,295.063C254.456,301.061 236.615,301.814 236.615,301.814L245.167,280.84C245.167,280.84 272.72,275.691 281.238,263.041C289.756,250.392 297.474,226.485 291.969,218.569C286.464,210.652 271.888,205.719 258.652,212.717C253.159,215.621 245.167,221.436 245.167,221.436L245.594,194.207Z" style="fill:rgb(7,59,76);"/>
        </g>
        <path d="M178.477,145.488C178.477,145.488 143.94,141.192 115.009,141.144C86.078,141.096 24.708,146.27 24.412,158.287C24.116,170.304 24.374,265.969 24.412,276.133C24.581,321.254 82.815,347.312 82.815,347.312C82.815,347.312 53.463,329.869 52.481,274.977C52.206,259.642 53.145,167.236 53.073,165.424C52.84,159.573 61.385,149.69 113.778,147.471C166.17,145.252 178.477,145.488 178.477,145.488Z" style="fill:rgb(7,59,76);"/>
        <path d="M198.437,144.519C198.437,144.519 245.218,147.316 245.167,159.998C245.126,170.198 205.823,173.958 194.22,174.909C176.877,176.33 89.323,172.29 89.323,172.29C89.323,172.29 177.493,168.651 193.205,166.852C207.797,165.181 214.946,162.206 214.964,155.655C214.988,147.001 198.437,144.519 198.437,144.519Z" style="fill:rgb(7,59,76);"/>
        <path d="M120.346,10C120.346,10 108.529,19.886 109.206,46.191C109.883,72.497 143.637,105.061 143.813,125.976C143.989,146.891 141.123,156.225 141.123,156.225C141.123,156.225 152.153,141.447 154.16,125.579C157.113,102.232 126.181,62.866 120.54,46.624C114.43,29.034 120.346,10 120.346,10Z" style="fill:rgb(7,59,76);"/>
        <g transform="matrix(0.556897,0,0,0.593789,87.0384,33.7612)">
            <path d="M120.346,10C120.346,10 108.529,19.886 109.206,46.191C109.883,72.497 143.637,105.061 143.813,125.976C143.989,146.891 141.123,156.225 141.123,156.225C141.123,156.225 152.153,141.447 154.16,125.579C157.113,102.232 126.181,62.866 120.54,46.624C114.43,29.034 120.346,10 120.346,10Z" style="fill:rgb(7,59,76);"/>
        </g>
        <g transform="matrix(0.556897,0,0,0.593789,31.3216,44.5449)">
            <path d="M120.346,10C120.346,10 108.529,19.886 109.206,46.191C109.883,72.497 143.637,105.061 143.813,125.976C143.989,146.891 141.123,156.225 141.123,156.225C141.123,156.225 152.153,141.447 154.16,125.579C157.113,102.232 126.181,62.866 120.54,46.624C114.43,29.034 120.346,10 120.346,10Z" style="fill:rgb(7,59,76);"/>
        </g>
    </g>
</svg>
